<svg xmlns="http://www.w3.org/2000/svg" viewBox="0 0 24 24">
  <defs>
    <style>
      .cls-1 {
        fill: #fff;
        opacity: 0;
      }

      .cls-2 {
        fill: none;
        stroke: #000;
        stroke-linecap: round;
        stroke-linejoin: round;
        stroke-width: 2px;
      }
    </style>
  </defs>
  <g id="twitter" transform="translate(-1742 -960)">
    <rect id="背景" class="cls-1" width="24" height="24" transform="translate(1742 960)"/>
    <path id="twitter-2" data-name="twitter" class="cls-2" d="M23,3a10.9,10.9,0,0,1-3.14,1.53,4.48,4.48,0,0,0-7.86,3v1A10.66,10.66,0,0,1,3,4s-4,9,5,13a11.64,11.64,0,0,1-7,2c9,5,20,0,20-11.5a4.5,4.5,0,0,0-.08-.83A7.72,7.72,0,0,0,23,3Z" transform="translate(1742 960.01)"/>
  </g>
</svg>
